<svg xmlns="http://www.w3.org/2000/svg" xmlns:xlink="http://www.w3.org/1999/xlink" xmlns:a="http://ns.adobe.com/AdobeSVGViewerExtensions/3.0/" version="1.1" x="0px" y="0px" width="75px" height="90px" viewBox="0 0 75 90" enable-background="new 0 0 75 90" xml:space="preserve">
<defs>
</defs>
<g>
	<path fill="#60686D" d="M75.2,4.1C75.2,1.8,73.3,0,71,0H45.4H22.8H4.1C1.9,0,0,1.8,0,4.1V86c0,2.3,1.9,4.2,4.1,4.2H71   c2.3,0,4.2-1.9,4.2-4.2V4.1z M52.3,79.5c-1.6,0-2.9-1.3-2.9-2.9c0-1.3,0.8-2.3,1.9-2.7V60c-1.1-0.4-1.9-1.4-1.9-2.7   s0.8-2.3,1.9-2.7v-14c-1.1-0.4-1.9-1.4-1.9-2.7c0-1.6,1.3-2.9,2.9-2.9c1.3,0,2.3,0.8,2.7,1.9h9.4c0,0,0.3,0,0.4-0.1   c0.1-0.1,0.1-0.4,0.1-0.4v-16c-1.1-0.4-1.9-1.4-1.9-2.7c0-1.6,1.3-2.9,2.9-2.9s2.9,1.3,2.9,2.9c0,1.3-0.8,2.3-1.9,2.7v16   c0,0,0,0.9-0.6,1.6c-0.7,0.8-1.7,0.8-1.7,0.8H55c-0.3,0.8-0.9,1.5-1.8,1.8v14c1.1,0.4,1.9,1.4,1.9,2.7s-0.8,2.3-1.9,2.7v13.9   c1.1,0.4,1.9,1.4,1.9,2.7C55.2,78.2,53.9,79.5,52.3,79.5z"/>
</g>
<g>
	<path fill="#FFFFFF" stroke="#FFFFFF" stroke-width="0.6" stroke-miterlimit="10" d="M5.3,39.2v-1.4l5.6-7.1h1.8V38h1.7v1.2h-1.7   v2.6h-1.3v-2.6H5.3z M6.6,38h4.8v-6.1L6.6,38z"/>
	<path fill="#FFFFFF" stroke="#FFFFFF" stroke-width="0.6" stroke-miterlimit="10" d="M16.5,41.8V30.7h1.3v4.8h6.6v-4.8h1.3v11.1   h-1.3v-5.1h-6.6v5.1H16.5z"/>
	<path fill="#FFFFFF" stroke="#FFFFFF" stroke-width="0.6" stroke-miterlimit="10" d="M28.4,41.8V30.7h1.2v9.9h6.5v1.2H28.4z"/>
	<path fill="#FFFFFF" stroke="#FFFFFF" stroke-width="0.6" stroke-miterlimit="10" d="M40.5,41.9c-1.2,0-2.1-0.2-2.5-0.7   c-0.5-0.5-0.7-1.3-0.7-2.4V37c0-1.1,0.2-2,0.7-2.4s1.3-0.7,2.5-0.7h0.6c1.1,0,2,0.2,2.5,0.6c0.5,0.4,0.8,1.1,0.8,2.1l-1.2,0   c0-0.6-0.2-1.1-0.4-1.3s-0.8-0.4-1.6-0.4h-0.6c-0.8,0-1.4,0.1-1.6,0.4s-0.4,0.9-0.4,1.9v1.3c0,1,0.1,1.6,0.4,1.9   c0.3,0.3,0.8,0.4,1.6,0.4h0.6c0.8,0,1.3-0.1,1.6-0.4c0.3-0.3,0.4-0.7,0.4-1.4v-0.1h1.2v0.1c0,1-0.2,1.7-0.7,2.2   c-0.5,0.4-1.3,0.7-2.5,0.7H40.5z"/>
</g>
<g>
	<path fill="#FFFFFF" stroke="#FFFFFF" stroke-width="0.6" stroke-miterlimit="10" d="M18.1,59v-1.4l5.6-7.1h1.8v7.3h1.7V59h-1.7   v2.6h-1.3V59H18.1z M19.3,57.8h4.8v-6.1L19.3,57.8z"/>
	<path fill="#FFFFFF" stroke="#FFFFFF" stroke-width="0.6" stroke-miterlimit="10" d="M29.2,61.6V50.5h1.3v4.8h6.6v-4.8h1.3v11.1   h-1.3v-5.1h-6.6v5.1H29.2z"/>
</g>
<g>
	<path fill="#FFFFFF" stroke="#FFFFFF" stroke-width="0.6" stroke-miterlimit="10" d="M18.4,81.7v-1.9c0-0.6,0-1,0.1-1.4   c0.1-0.3,0.2-0.6,0.5-0.9c0.2-0.2,0.5-0.4,0.8-0.6s0.8-0.3,1.5-0.5l2.6-0.7c0.4-0.1,0.7-0.2,1-0.3c0.3-0.1,0.4-0.3,0.5-0.4   c0.1-0.1,0.1-0.2,0.2-0.4c0-0.2,0-0.5,0-1c0-0.5,0-0.9-0.1-1.1s-0.2-0.4-0.4-0.5c-0.2-0.1-0.5-0.2-0.9-0.2s-1.1-0.1-1.9-0.1   c-1.1,0-1.8,0.1-2.1,0.4c-0.3,0.2-0.4,0.7-0.4,1.5v0.7h-1.3v-0.7c0-1.1,0.3-1.9,0.8-2.3c0.5-0.4,1.6-0.6,3.1-0.6c0.9,0,1.6,0,2,0.1   c0.4,0,0.8,0.1,1,0.2c0.6,0.2,0.9,0.5,1.2,0.9c0.2,0.4,0.3,1.1,0.3,2c0,1-0.2,1.8-0.5,2.2c-0.3,0.4-0.9,0.7-1.8,1l-3.2,0.9   c-0.7,0.2-1.1,0.4-1.3,0.6s-0.3,0.5-0.3,1v1.2h7.1v1.2H18.4z"/>
	<path fill="#FFFFFF" stroke="#FFFFFF" stroke-width="0.6" stroke-miterlimit="10" d="M29.2,81.7V70.6h1.3v4.8h6.6v-4.8h1.3v11.1   h-1.3v-5.1h-6.6v5.1H29.2z"/>
</g>
<g>
	<path fill="#FFFFFF" stroke="#FFFFFF" stroke-width="0.6" stroke-miterlimit="10" d="M20.2,19.4V18l5.6-7.1h1.8v7.3h1.7v1.2h-1.7   V22h-1.3v-2.6H20.2z M21.5,18.2h4.8v-6.1L21.5,18.2z"/>
	<path fill="#FFFFFF" stroke="#FFFFFF" stroke-width="0.6" stroke-miterlimit="10" d="M31.4,22V10.9h1.2v9.9h6.5V22H31.4z"/>
	<path fill="#FFFFFF" stroke="#FFFFFF" stroke-width="0.6" stroke-miterlimit="10" d="M40.8,22V10.9H42v9.9h6.5V22H40.8z"/>
	<path fill="#FFFFFF" stroke="#FFFFFF" stroke-width="0.6" stroke-miterlimit="10" d="M53,22.1c-1.2,0-2.1-0.2-2.5-0.7   c-0.5-0.5-0.7-1.3-0.7-2.4v-1.9c0-1.1,0.2-2,0.7-2.4c0.5-0.5,1.3-0.7,2.5-0.7h0.6c1.1,0,2,0.2,2.5,0.6c0.5,0.4,0.8,1.1,0.8,2.1   l-1.2,0c0-0.6-0.2-1.1-0.4-1.3s-0.8-0.4-1.6-0.4h-0.6c-0.8,0-1.4,0.1-1.6,0.4c-0.3,0.3-0.4,0.9-0.4,1.9v1.3c0,1,0.1,1.6,0.4,1.9   c0.3,0.3,0.8,0.4,1.6,0.4h0.6c0.8,0,1.3-0.1,1.6-0.4c0.3-0.3,0.4-0.7,0.4-1.4v-0.1h1.2v0.1c0,1-0.2,1.7-0.7,2.2   c-0.5,0.4-1.3,0.7-2.5,0.7H53z"/>
</g>
</svg>