<svg xmlns="http://www.w3.org/2000/svg" xmlns:xlink="http://www.w3.org/1999/xlink" version="1.1" id="Слой_1" x="0px" y="0px" width="50px" height="90px" viewBox="0 0 50 90" enable-background="new 0 0 50 90" xml:space="preserve">
<path fill-rule="evenodd" clip-rule="evenodd" fill="#60686D" d="M17.999,32h7v22h-7V32z M18,89h7v1h-7V89z M17.999,1h7v1h-7V1z"/>
<path fill-rule="evenodd" clip-rule="evenodd" fill="#F34022" d="M29,70h10v3H29v17h-2.999v-2H17v2h-3v-8H5v-9H0v-3h5v-9h9v-8h2.999  v2h8.999v-2H29V70z M43,17V1H33V0h-3.842L22,17h-1L13.842,0H10v17H0v3h10v17h3.842L21,20h1l7.158,17H33v-1h10V20h7v-3H43z"/>
</svg>