<svg xmlns="http://www.w3.org/2000/svg" xmlns:xlink="http://www.w3.org/1999/xlink" version="1.1" id="Слой_1" x="0px" y="0px" width="65px" height="90px" viewBox="0 0 65 90" enable-background="new 0 0 65 90" xml:space="preserve">
<g>
	<path fill="#60686D" d="M9.888,47.457c0,0.534-0.143,0.922-0.427,1.162C9.177,48.86,8.759,48.98,8.208,48.98H7.131v-2.928h0.932   c0.63,0,1.092,0.111,1.385,0.335C9.741,46.61,9.888,46.968,9.888,47.457z M8.995,72.598c-0.363-0.166-0.799-0.249-1.306-0.249   H6.888v6.472h0.853c0.771,0,1.374-0.238,1.812-0.715c0.438-0.478,0.656-1.333,0.656-2.567c0-0.857-0.111-1.521-0.335-1.988   C9.652,73.082,9.358,72.764,8.995,72.598z M54.971,24.031l-22.725-0.014l-1.43,7.115c1.259,0.364,2.185,1.502,2.185,2.867v23h1.034   h2.52h1.65H41h17V27.058C58,25.386,56.645,24.031,54.971,24.031z M9.599,35.885c0.315-0.258,0.473-0.702,0.473-1.332   c0-1.076-0.626-1.615-1.877-1.615H7.262v3.334h0.932C8.816,36.272,9.284,36.144,9.599,35.885z M3.03,90C1.356,90,0,88.646,0,86.974   V27.027C0,25.355,1.356,24,3.03,24l13.768,0.008l1.662,7.438C17.587,31.973,17,32.914,17,34v42c0,1.656,1.356,3,3.03,3H28v2.977   C28,83.646,29.343,85,31,85h1v4.965L3.03,90z M5.529,40.736h1.733v-3.164h1.063c1.077,0,1.938-0.251,2.586-0.755   c0.647-0.503,0.971-1.258,0.971-2.265c0-0.963-0.322-1.685-0.965-2.166s-1.547-0.722-2.711-0.722H5.529V40.736z M4.998,66.992   h1.575V63.29c0-0.727-0.02-1.353-0.059-1.878c-0.04-0.524-0.099-1.111-0.177-1.759l3.111,7.339h2.245v-9.071h-1.575v4.253   c0,0.569,0.026,1.141,0.079,1.713c0.053,0.574,0.105,1.035,0.158,1.386L7.19,57.921H4.998V66.992z M12.034,75.538   c0-1.715-0.422-2.892-1.267-3.531c-0.845-0.639-1.972-0.958-3.38-0.958H5.155v9.071h2.468c1.277,0,2.332-0.344,3.164-1.03   C11.619,78.402,12.034,77.219,12.034,75.538z M12.238,53.863l-2.376-3.951c0.63-0.244,1.094-0.564,1.392-0.958   c0.297-0.394,0.446-0.893,0.446-1.497c0-1.776-1.199-2.664-3.597-2.664H5.398v9.07h1.733v-3.636h1.103l2.008,3.636H12.238z"/>
	<path fill="#F34022" d="M64.99,88.172V60.777c-0.506,0.278-1.152,0.205-1.58-0.224c-0.428-0.428-0.502-1.074-0.223-1.579H39.484   v0.455c0,0.403-0.326,0.73-0.73,0.73s-0.73-0.327-0.73-0.73v-0.455h-2.23c0.277,0.505,0.205,1.151-0.225,1.579   c-0.428,0.428-1.074,0.502-1.579,0.224v27.395c0.504-0.278,1.151-0.205,1.579,0.223c0.43,0.429,0.502,1.075,0.225,1.58h2.23V89.52   c0-0.403,0.326-0.73,0.73-0.73s0.73,0.327,0.73,0.73v0.455h23.703c-0.279-0.505-0.205-1.151,0.223-1.58   C63.838,87.967,64.484,87.894,64.99,88.172z M61.004,82.291c0,2.057-1.672,3.729-3.729,3.729h-3.67   c-0.533,0-0.967-0.433-0.967-0.966c0-0.534,0.434-1.092,0.967-1.092h3.576c0.99,0,1.797-0.806,1.797-1.797V66.783   c0-0.991-0.807-1.797-1.797-1.797H41.516c-0.99,0-1.514,0.806-1.514,1.797v15.383c0,0.991,0.805,1.797,1.795,1.797h3.578   c0.533,0,0.965,0.558,0.965,1.092c0,0.533-0.432,0.966-0.965,0.966h-3.658c-2.057,0-3.729-1.673-3.729-3.729V66.67   c0-2.057,1.672-3.729,3.729-3.729h15.559c2.057,0,3.729,1.673,3.729,3.729V82.291z M43.129,82.079c-0.635,0-1.15-0.516-1.15-1.15   V68.021c0-0.636,0.516-1.058,1.15-1.058H55.85c0.635,0,1.15,0.516,1.15,1.15v12.815c0,0.634-0.516,1.15-1.15,1.15H43.129   L43.129,82.079z M45.977,72.703v0.261h-0.99v-0.306c0-0.536-0.111-0.74-0.488-0.74c-0.375,0-0.549,0.204-0.549,0.74v3.621   c0,0.537,0.143,0.729,0.518,0.729c0.377,0,0.52-0.192,0.52-0.729v-0.292h0.99v0.217c0,1.202-0.289,1.89-1.447,1.89   c-1.16,0-1.543-0.688-1.543-1.89v-3.501c0-1.203,0.414-1.891,1.574-1.891C45.719,70.813,45.977,71.5,45.977,72.703z M49.186,70.961   h-1.209v7.016h1.025v-2.011h0.184c1.18,0,1.76-0.655,1.76-1.857v-1.29C50.945,71.616,50.367,70.961,49.186,70.961z M49.984,74.277   c0,0.537-0.205,0.708-0.58,0.708h-0.402v-3.044h0.402c0.375,0,0.58,0.172,0.58,0.709V74.277L49.984,74.277z M54.969,70.961h1.023   v5.254c0,1.202-0.32,1.89-1.479,1.89c-1.16,0-1.512-0.687-1.512-1.89v-5.254h0.994v5.329c0,0.536,0.143,0.729,0.518,0.729   c0.377,0,0.455-0.193,0.455-0.729V70.961L54.969,70.961z M20.485,8.732c0.136,0.286,0.204,0.689,0.204,1.212   c0,0.752-0.133,1.274-0.4,1.564c-0.267,0.291-0.635,0.436-1.104,0.436h-0.52V8h0.488c0.309,0,0.575,0.051,0.796,0.152   C20.17,8.253,20.35,8.447,20.485,8.732z M34.146,3.323c0,0,0.01,5.197-0.801,10.065c-0.714,4.289-2.264,7.313-2.264,7.313   c0,1.27-1.029,2.298-2.298,2.298h-8.428c-1.27,0-2.299-1.029-2.299-2.298c0,0-1.434-3.083-2.154-7.406   c-0.807-4.841-0.911-9.972-0.911-9.972c0-1.27,1.029-2.299,2.298-2.299c0,0,3.45-0.626,6.991-0.626   c3.732,0,7.566,0.626,7.566,0.626C33.118,1.024,34.146,2.054,34.146,3.323z M21.801,9.944c0-1.045-0.257-1.762-0.772-2.152   s-1.201-0.584-2.06-0.584h-1.36v5.528h1.504c0.779,0,1.421-0.209,1.928-0.628C21.548,11.689,21.801,10.968,21.801,9.944z    M26.369,11.16c0-0.485-0.137-0.854-0.412-1.108c-0.275-0.253-0.684-0.465-1.228-0.636c-0.315-0.096-0.552-0.184-0.712-0.264   c-0.16-0.08-0.271-0.166-0.332-0.256c-0.061-0.09-0.092-0.206-0.092-0.344c0-0.208,0.079-0.369,0.236-0.484   c0.157-0.115,0.364-0.172,0.62-0.172c0.229,0,0.444,0.038,0.644,0.112c0.2,0.075,0.399,0.195,0.596,0.36l0.52-0.601   c-0.251-0.229-0.52-0.399-0.808-0.512s-0.627-0.168-1.016-0.168c-0.363,0-0.687,0.064-0.972,0.192   c-0.286,0.128-0.508,0.307-0.668,0.536c-0.16,0.229-0.24,0.496-0.24,0.8c0,0.416,0.131,0.752,0.392,1.008s0.685,0.475,1.272,0.656   c0.293,0.091,0.517,0.178,0.672,0.26c0.155,0.083,0.264,0.176,0.328,0.28s0.096,0.236,0.096,0.396c0,0.262-0.093,0.464-0.28,0.608   c-0.187,0.144-0.432,0.216-0.736,0.216c-0.277,0-0.531-0.047-0.76-0.14c-0.229-0.093-0.451-0.23-0.664-0.412l-0.544,0.608   c0.24,0.235,0.527,0.42,0.86,0.556c0.333,0.136,0.711,0.204,1.132,0.204c0.432,0,0.805-0.072,1.12-0.216   c0.315-0.144,0.556-0.344,0.724-0.6S26.369,11.491,26.369,11.16z M31.313,9.608H29.33l0.111,0.784h0.832v1.44   c-0.25,0.144-0.544,0.216-0.88,0.216c-0.442,0-0.771-0.162-0.987-0.488c-0.217-0.325-0.324-0.855-0.324-1.592   c0-0.704,0.136-1.227,0.408-1.568c0.271-0.341,0.621-0.512,1.048-0.512c0.229,0,0.431,0.035,0.604,0.104   c0.174,0.069,0.358,0.182,0.557,0.336l0.567-0.592c-0.25-0.213-0.516-0.375-0.796-0.484s-0.602-0.164-0.964-0.164   c-0.47,0-0.896,0.112-1.28,0.336c-0.384,0.224-0.689,0.554-0.916,0.988s-0.34,0.953-0.34,1.556c0,0.944,0.209,1.662,0.628,2.152   c0.419,0.49,1.022,0.736,1.813,0.736c0.672,0,1.307-0.181,1.903-0.544V9.608z M29.132,24.977l-2.029,11.99h-5.217l-1.893-11.99   H29.132 M30.316,23.977H18.823l2.208,13.99h6.916L30.316,23.977L30.316,23.977z M23,39h3v23h-3V39z"/>
</g>
</svg>