<svg xmlns="http://www.w3.org/2000/svg" xmlns:xlink="http://www.w3.org/1999/xlink" version="1.1" id="Layer_1" x="0px" y="0px" viewBox="308 377 550 86" enable-background="new 308 377 550 86" xml:space="preserve">
<circle fill="#EF4124" cx="351.3" cy="420.8" r="43.1"/>
<path fill="#FFFFFF" d="M375.4,418.3l4.8-6.1l-1.1-3l-7.6-1.7l-4.9-5.4l-1-7.7l-2.9-1.4l-6.6,4.2l-7.3-0.4l-6.1-4.8l-3,1.1l-1.7,7.6  l-5.4,4.9l-7.7,1l-1.5,2.8l4.1,6.6l-0.1,1.2l15.6,0.3c1.7-4.1,6.3-6.4,10.6-5.1c4.7,1.4,7.4,6.3,6,11c-1.4,4.7-6.3,7.4-11,6  c-2.9-0.8-5.1-3.1-6-5.8l-15.4-0.4v0.1l-4.8,6.1l1.1,3l7.6,1.7l4.9,5.4l1,7.7l2.9,1.4l6.6-4.2l7.3,0.4l6.1,4.8l3-1.1l1.7-7.6  l5.5-4.9l7.7-1l1.4-2.9l-4.1-6.6L375.4,418.3z"/>
<path fill="#5F686D" d="M419.1,414.4c-1.6,0-3.1,0.1-4.5-1.2c-1.4-1.3-1.6-3.2-1.6-4.6v-25.9h10.2v20.8c0,0.7,0,1.9,0.4,2.4  c0.5,0.5,1.7,0.5,2.1,0.5h9.1v-23.7H445v23.8h4.3v7.9H419.1z"/>
<path fill="#5F686D" d="M456.3,414.4c-1.3,0-2.6-0.1-3.8-1.1c-1.4-1.2-1.4-2.5-1.4-4v-21.7c0-1.2,0.2-2.5,1.4-3.6  c1.2-1.1,2.7-1.3,3.8-1.3H479v7.7h-15.6c-0.6,0-1.2,0.1-1.6,0.5c-0.5,0.4-0.5,1.1-0.5,1.5v2.4h17.3v6.9h-17.3v3.4  c0,0.6,0.2,1,0.5,1.2c0.5,0.5,1.3,0.4,1.9,0.4h15.5v7.7H456.3z"/>
<polygon fill="#5F686D" points="514.2,414.4 504,414.4 504,401.8 492.5,401.8 492.5,414.4 482.3,414.4 482.3,382.7 492.5,382.7   492.5,393.9 504,393.9 504,382.7 514.2,382.7 "/>
<polygon fill="#5F686D" points="527.3,414.4 527.3,390.6 516,390.6 516,382.7 548.8,382.7 548.8,390.6 537.5,390.6 537.5,414.4 "/>
<path fill="#5F686D" d="M550.6,414.4v-25.7c0-1.3,0.2-3.1,1.3-4.3c0.7-0.8,2-1.6,4.2-1.6h17.5c2.5,0,4.9,0.3,6.6,2.2  c1.5,1.6,2.4,4.1,2.4,8.6c0,2.2-0.2,7.6-2.8,9.9c-1.5,1.3-3.8,1.7-5.6,1.7h-13.3v9.1L550.6,414.4L550.6,414.4z M568.2,397.4  c1.3,0,2.5,0.1,3.4-0.8c0.5-0.5,0.8-1.4,0.8-2.8c0-0.8-0.1-1.8-0.9-2.5c-0.9-0.7-2-0.7-3.2-0.7h-5.7c-1.6,0-1.8,1.2-1.8,1.9v4.9  C560.8,397.4,568.2,397.4,568.2,397.4z"/>
<path fill="#5F686D" d="M604.7,414.4v-25.7c0-1.3,0.2-3.1,1.3-4.3c0.7-0.8,2-1.6,4.2-1.6h17.5c2.5,0,4.9,0.3,6.6,2.2  c1.5,1.6,2.4,4.1,2.4,8.6c0,2.2-0.2,7.6-2.8,9.9c-1.5,1.3-3.8,1.7-5.6,1.7H615v9.1L604.7,414.4L604.7,414.4z M622.3,397.4  c1.3,0,2.5,0.1,3.4-0.8c0.5-0.5,0.8-1.4,0.8-2.8c0-0.8-0.1-1.8-0.9-2.5c-0.9-0.7-2-0.7-3.2-0.7h-5.7c-1.6,0-1.8,1.2-1.8,1.9v4.9  C614.9,397.4,622.3,397.4,622.3,397.4z"/>
<path fill="#5F686D" d="M645.6,414.4c-1.3,0-2.6-0.1-3.8-1.1c-1.4-1.2-1.4-2.5-1.4-4v-21.7c0-1.2,0.2-2.5,1.4-3.6  c1.2-1.1,2.7-1.3,3.8-1.3h22.7v7.7h-15.6c-0.6,0-1.2,0.1-1.6,0.5c-0.5,0.4-0.5,1.1-0.5,1.5v2.4h17.3v6.9h-17.3v3.4  c0,0.6,0.2,1,0.5,1.2c0.5,0.5,1.3,0.4,1.9,0.4h15.4v7.7C668.4,414.4,645.6,414.4,645.6,414.4z"/>
<path fill="#5F686D" d="M699.6,410.5c-0.7,2.3-1.6,4.2-6.1,4.2s-5.4-1.9-6.1-4.2l-4.9-15.3c-0.2-0.6-0.4-1.1-0.6-1.1  c-0.4,0-0.4,0.7-0.4,1l0.3,19.3h-10.3v-26.5c0-5.6,6.1-5.6,7.8-5.6c2.7,0,6.5,0.3,8.1,5.2l5.1,15.4c0.1,0.3,0.6,1.4,0.9,1.4  c0.4,0,0.9-1.1,1-1.4l5.1-15.4c1.6-4.9,5.4-5.2,8.1-5.2c7.2,0,7.8,3.6,7.8,5.6v26.5h-10.3l0.4-19.3c0-0.9-0.2-1-0.4-1  s-0.4,0.3-0.6,1.1L699.6,410.5z"/>
<path fill="#5F686D" d="M750.3,385.6c3.4,3.2,3.6,8.7,3.6,12.9s-0.1,9.7-3.6,12.9c-3.3,3.1-9.1,3.3-13.8,3.3  c-4.7,0-10.5-0.1-13.8-3.3c-3.4-3.2-3.6-8.8-3.6-12.9c0-4.3,0.1-9.8,3.6-12.9c3.4-3.1,9-3.3,13.8-3.3  C741.3,382.4,746.9,382.5,750.3,385.6L750.3,385.6z M730.7,404.6c1.4,2.1,3.2,2.3,5.7,2.3c2.7,0,4.3-0.2,5.7-2.3  c1.2-1.7,1.2-3.5,1.2-6c0-2.8,0-4.3-1.2-6c-1.4-2.1-3.1-2.3-5.7-2.3c-2.6,0-4.4,0.2-5.7,2.3c-1.1,1.7-1.2,3.4-1.2,6  C729.6,401,729.7,403,730.7,404.6z"/>
<polygon fill="#5F686D" points="789.4,414.4 779.2,414.4 779.2,401.8 767.7,401.8 767.7,414.4 757.5,414.4 757.5,382.7 767.7,382.7   767.7,393.9 779.2,393.9 779.2,382.7 789.4,382.7 "/>
<polygon fill="#5F686D" points="802.5,414.4 802.5,390.6 791.2,390.6 791.2,382.7 824.1,382.7 824.1,390.6 812.8,390.6 812.8,414.4   "/>
<path fill="#5F686D" d="M413.3,432.2h8.6v26.6h-8.6V432.2L413.3,432.2z M432.4,458.8l-8.1-10.3c-0.6-0.8-1.6-2.2-1.6-3.3  c0-1,0.6-2.2,1.2-3l7.1-10h10.2l-9.2,11c-1,1.2-1.1,1.7-1.1,2c0,0.9,0.8,1.8,1.4,2.4l10.3,11.2C442.6,458.8,432.4,458.8,432.4,458.8  z"/>
<path fill="#5F686D" d="M467.4,434.6c2.9,2.7,3,7.3,3,10.9c0,3.5-0.1,8.2-3,10.9c-2.8,2.6-7.7,2.7-11.6,2.7c-4,0-8.8-0.1-11.6-2.7  c-2.9-2.7-3-7.4-3-10.9c0-3.6,0.1-8.2,3-10.9c2.8-2.6,7.6-2.7,11.6-2.7C459.8,431.9,464.6,432,467.4,434.6L467.4,434.6z M451,450.5  c1.1,1.7,2.7,1.9,4.8,1.9c2.2,0,3.6-0.2,4.8-1.9c1-1.4,1-2.9,1-5.1c0-2.3,0-3.6-1-5.1c-1.2-1.7-2.6-1.9-4.8-1.9  c-2.2,0-3.7,0.2-4.8,1.9c-0.9,1.4-1,2.9-1,5.1C450,447.5,450.1,449.2,451,450.5z"/>
<path fill="#5F686D" d="M473.5,458.8v-21.6c0-1.1,0.2-2.6,1.1-3.6c0.6-0.6,1.7-1.4,3.5-1.4h14.7c2.1,0,4.1,0.3,5.6,1.9  c1.3,1.3,2,3.4,2,7.3c0,1.9-0.2,6.4-2.4,8.4c-1.3,1.1-3.2,1.4-4.7,1.4h-11.2v7.7h-8.6L473.5,458.8L473.5,458.8z M488.2,444.5  c1.1,0,2.1,0.1,2.9-0.7c0.4-0.5,0.7-1.2,0.7-2.3c0-0.7-0.1-1.5-0.8-2.1c-0.7-0.6-1.7-0.6-2.7-0.6h-4.7c-1.4,0-1.5,1-1.5,1.6v4.1  H488.2z"/>
<path fill="#5F686D" d="M528.8,434.6c2.9,2.7,3,7.3,3,10.9c0,3.5-0.1,8.2-3,10.9c-2.8,2.6-7.7,2.7-11.6,2.7c-4,0-8.8-0.1-11.6-2.7  c-2.9-2.7-3-7.4-3-10.9c0-3.6,0.1-8.2,3-10.9c2.8-2.6,7.6-2.7,11.6-2.7S526,432,528.8,434.6L528.8,434.6z M512.4,450.5  c1.1,1.7,2.7,1.9,4.8,1.9c2.2,0,3.6-0.2,4.8-1.9c1-1.4,1-2.9,1-5.1c0-2.3,0-3.6-1-5.1c-1.2-1.7-2.6-1.9-4.8-1.9s-3.7,0.2-4.8,1.9  c-0.9,1.4-1,2.9-1,5.1C511.4,447.5,511.5,449.2,512.4,450.5z"/>
<path fill="#5F686D" d="M560.1,438.8h-15c-1.6,0-1.6,0.6-1.6,1.6v1.9h12.3c2.1,0,3.6,0.8,4.4,1.7c1.4,1.6,1.5,4.5,1.5,6.3  c0,2.3-0.2,4.7-1.5,6.4c-0.3,0.5-1.7,2.1-4.3,2.1h-17.2c-2.2,0-3.7-1.6-3.7-3.7v-18.6c0-4,3.2-4.3,4.1-4.3h21V438.8L560.1,438.8z   M543.5,450.4c0,1.9,0.6,1.7,1.8,1.7h5.1c0.5,0,1.4,0,2-0.5c0.5-0.5,0.5-1.2,0.5-1.6c0-0.6,0-1.1-0.6-1.5c-0.6-0.5-1.4-0.5-1.9-0.5  h-6.9V450.4L543.5,450.4z"/>
<path fill="#5F686D" d="M590.1,434.6c2.9,2.7,3,7.3,3,10.9c0,3.5-0.1,8.2-3,10.9c-2.8,2.6-7.7,2.7-11.6,2.7c-4,0-8.8-0.1-11.6-2.7  c-2.9-2.7-3-7.4-3-10.9c0-3.6,0.1-8.2,3-10.9c2.8-2.6,7.6-2.7,11.6-2.7S587.3,432,590.1,434.6L590.1,434.6z M573.7,450.5  c1.1,1.7,2.7,1.9,4.8,1.9c2.2,0,3.6-0.2,4.8-1.9c1-1.4,1-2.9,1-5.1c0-2.3,0-3.6-1-5.1c-1.2-1.7-2.6-1.9-4.8-1.9  c-2.2,0-3.7,0.2-4.8,1.9c-0.9,1.4-1,2.9-1,5.1C572.7,447.5,572.8,449.2,573.7,450.5z"/>
<path fill="#5F686D" d="M596.9,432.2h8.6v26.6h-8.6V432.2L596.9,432.2z M616,458.8l-8.1-10.3c-0.6-0.8-1.6-2.2-1.6-3.3  c0-1,0.6-2.2,1.2-3l7.1-10h10.2l-9.2,11c-1,1.2-1.1,1.7-1.1,2c0,0.9,0.8,1.8,1.4,2.4l10.3,11.2H616z"/>
<path fill="#5F686D" d="M655.1,437.1c-0.5,0-1,0-1.4,0.4c-0.4,0.4-0.4,0.9-0.4,1.5v19.8h-9.2v-24.4c0-0.9,0.2-2,1.1-2.9  c1.3-1.3,2.9-1.2,4.3-1.2h17.8c1.7,0,3,0,4.2,1.2c0.9,0.9,1.1,2,1.1,2.9v24.4h-9.2V439c0-0.5,0-1.1-0.4-1.5  c-0.4-0.4-0.9-0.4-1.4-0.4C661.6,437.1,655.1,437.1,655.1,437.1z"/>
<path fill="#5F686D" d="M681.4,458.8c-1.2,0-2.4-0.1-3.5-1c-1.3-1.1-1.3-2.2-1.3-3.6v-19.5c0-1.1,0.2-2.3,1.2-3.3  c1.1-1,2.4-1.1,3.5-1.1h20.5v6.9h-14.1c-0.5,0-1.1,0.1-1.4,0.4c-0.4,0.4-0.4,1-0.4,1.4v2.2h15.5v6.2h-15.6v3.1  c0,0.6,0.2,0.9,0.4,1.1c0.4,0.4,1.2,0.4,1.8,0.4h13.9v6.9L681.4,458.8L681.4,458.8z"/>
<path fill="#5F686D" d="M704.7,458.8v-23.2c0-1.2,0.2-2.8,1.1-3.9c0.6-0.7,1.8-1.5,3.8-1.5h15.8c2.3,0,4.4,0.3,6,2  c1.3,1.4,2.1,3.7,2.1,7.8c0,2-0.2,6.9-2.6,9c-1.3,1.1-3.5,1.5-5,1.5h-12v8.2L704.7,458.8L704.7,458.8z M720.5,443.4  c1.1,0,2.3,0.1,3.1-0.7c0.4-0.5,0.7-1.3,0.7-2.5c0-0.7-0.1-1.6-0.8-2.2c-0.8-0.7-1.8-0.7-2.9-0.7h-5.1c-1.5,0-1.6,1.1-1.6,1.7v4.4  H720.5z"/>
<path fill="#5F686D" d="M741.6,458.8c-1.2,0-2.4-0.1-3.5-1c-1.3-1.1-1.3-2.2-1.3-3.6v-19.5c0-1.1,0.2-2.3,1.2-3.3  c1.1-1,2.4-1.1,3.5-1.1H762v6.9h-14.1c-0.5,0-1.1,0.1-1.4,0.4c-0.4,0.4-0.4,1-0.4,1.4v2.2h15.6v6.2h-15.6v3.1c0,0.6,0.2,0.9,0.4,1.1  c0.4,0.4,1.2,0.4,1.8,0.4h13.9v6.9L741.6,458.8L741.6,458.8z"/>
<path fill="#5F686D" d="M773,433.1c0.6-1.4,1.8-3.2,6.6-3.2s6,1.8,6.6,3.2l7.7,18.5h2.9v7.1h-34.1v-7.1h2.8L773,433.1L773,433.1z   M774.5,451.7h10l-4.6-12.4c-0.1-0.2-0.2-0.7-0.4-0.7c-0.2,0-0.4,0.5-0.4,0.7L774.5,451.7z"/>
<path fill="#5F686D" d="M807.6,433.4c0.9-2.1,2.1-3.5,6.5-3.5c2.7,0,5.2,0.3,6.5,3.5l10.5,25.4h-9.7l-2.2-5.9h-10.3l-2.2,5.9H797  L807.6,433.4L807.6,433.4z M811.1,446.4h5.9l-2.6-7.2c-0.1-0.2-0.2-0.6-0.4-0.6c-0.1,0-0.3,0.4-0.4,0.6L811.1,446.4z"/>
<path fill="#5F686D" d="M847.3,458.8v-11.3h-12.9c-1.7,0-4.2-0.7-5.5-3c-1-1.8-1.1-3.6-1.1-4.9v-9.4h9.2v7.1c0,0.8,0,2,0.6,2.6  c0.5,0.4,1.4,0.5,2.7,0.5h7v-10.1h9.2v28.5H847.3z"/>
<path fill="#5F686D" d="M829.7,386.5c1-2.3,2.3-3.8,7-3.8c2.9,0,5.6,0.3,7,3.8l11.4,27.9h-10.4l-2.4-6.4h-11l-2.4,6.4h-10.4  L829.7,386.5L829.7,386.5z M833.6,400.8h6.3l-2.8-7.9c-0.1-0.2-0.3-0.7-0.4-0.7c-0.1,0-0.3,0.4-0.4,0.7L833.6,400.8z"/>
</svg>