<svg xmlns="http://www.w3.org/2000/svg" xmlns:xlink="http://www.w3.org/1999/xlink" version="1.1" id="Слой_1" x="0px" y="0px" width="81px" height="81px" viewBox="0 0 81 81" enable-background="new 0 0 81 81" xml:space="preserve">
<path fill="#60686D" d="M24.001,10C24.553,10,25,9.439,25,8.749V1.254C25,0.563,24.553,0,24.001,0S23,0.562,23,1.254v7.494  C23,9.439,23.45,10,24.001,10z M31.001,10C31.553,10,32,9.439,32,8.749V1.254C32,0.563,31.553,0,31.001,0S30,0.562,30,1.254v7.494  C30,9.439,30.45,10,31.001,10z M38.001,10C38.553,10,39,9.439,39,8.749V1.254C39,0.563,38.553,0,38.001,0S37,0.562,37,1.254v7.494  C37,9.439,37.45,10,38.001,10z M45.001,10C45.554,10,46,9.439,46,8.749V1.254C46,0.563,45.554,0,45.001,0  C44.449,0,44,0.562,44,1.254v7.494C44,9.439,44.449,10,45.001,10z M52.001,10C52.554,10,53,9.439,53,8.749V1.254  C53,0.563,52.554,0,52.001,0C51.449,0,51,0.562,51,1.254v7.494C51,9.439,51.449,10,52.001,10z M59.001,10  C59.554,10,60,9.439,60,8.749V1.254C60,0.563,59.554,0,59.001,0C58.449,0,58,0.562,58,1.254v7.494C58,9.439,58.449,10,59.001,10z   M24.001,81C24.553,81,25,80.439,25,79.748v-7.493C25,71.563,24.553,71,24.001,71S23,71.562,23,72.255v7.493  C23,80.439,23.45,81,24.001,81z M31.001,81C31.553,81,32,80.439,32,79.748v-7.493C32,71.563,31.553,71,31.001,71  S30,71.562,30,72.255v7.493C30,80.439,30.45,81,31.001,81z M38.001,81C38.553,81,39,80.439,39,79.748v-7.493  C39,71.563,38.553,71,38.001,71S37,71.562,37,72.255v7.493C37,80.439,37.45,81,38.001,81z M45.001,81C45.554,81,46,80.439,46,79.748  v-7.493C46,71.563,45.554,71,45.001,71C44.449,71,44,71.562,44,72.255v7.493C44,80.439,44.449,81,45.001,81z M52.001,81  C52.554,81,53,80.439,53,79.748v-7.493C53,71.563,52.554,71,52.001,71C51.449,71,51,71.562,51,72.255v7.493  C51,80.439,51.449,81,52.001,81z M59.001,81C59.554,81,60,80.439,60,79.748v-7.493C60,71.563,59.554,71,59.001,71  C58.449,71,58,71.562,58,72.255v7.493C58,80.439,58.449,81,59.001,81z M71,23.001C71,23.553,71.561,24,72.252,24h7.493  C80.437,24,81,23.553,81,23.001C81,22.449,80.438,22,79.745,22h-7.493C71.561,22,71,22.449,71,23.001z M71,30.001  C71,30.553,71.561,31,72.252,31h7.493C80.437,31,81,30.553,81,30.001C81,29.449,80.438,29,79.745,29h-7.493  C71.561,29,71,29.449,71,30.001z M71,37.001C71,37.553,71.561,38,72.252,38h7.493C80.437,38,81,37.553,81,37.001  C81,36.449,80.438,36,79.745,36h-7.493C71.561,36,71,36.449,71,37.001z M71,44.001C71,44.553,71.561,45,72.252,45h7.493  C80.437,45,81,44.553,81,44.001S80.438,43,79.745,43h-7.493C71.561,43,71,43.449,71,44.001z M71,51.001  C71,51.553,71.561,52,72.252,52h7.493C80.437,52,81,51.553,81,51.001S80.438,50,79.745,50h-7.493C71.561,50,71,50.449,71,51.001z   M71,58.001C71,58.553,71.561,59,72.252,59h7.493C80.437,59,81,58.553,81,58.001S80.438,57,79.745,57h-7.493  C71.561,57,71,57.449,71,58.001z M0,23.001C0,23.553,0.561,24,1.251,24h7.494C9.437,24,10,23.553,10,23.001  C10,22.449,9.438,22,8.746,22H1.251C0.561,22,0,22.449,0,23.001z M0,30.001C0,30.553,0.561,31,1.251,31h7.494  C9.437,31,10,30.553,10,30.001C10,29.449,9.438,29,8.746,29H1.251C0.561,29,0,29.449,0,30.001z M0,37.001  C0,37.553,0.561,38,1.251,38h7.494C9.437,38,10,37.553,10,37.001C10,36.449,9.438,36,8.746,36H1.251C0.561,36,0,36.449,0,37.001z   M0,44.001C0,44.553,0.561,45,1.251,45h7.494C9.437,45,10,44.553,10,44.001S9.438,43,8.746,43H1.251C0.561,43,0,43.449,0,44.001z   M0,51.001C0,51.553,0.561,52,1.251,52h7.494C9.437,52,10,51.553,10,51.001S9.438,50,8.746,50H1.251C0.561,50,0,50.449,0,51.001z   M0,58.001C0,58.553,0.561,59,1.251,59h7.494C9.437,59,10,58.553,10,58.001S9.438,57,8.746,57H1.251C0.561,57,0,57.449,0,58.001z"/>
<path fill="#F34022" d="M60.276,13H20.751C16.479,13,13,16.48,13,20.749l0.063,39.495c0,4.276,3.417,7.757,7.688,7.757h39.463  C64.487,68,68,64.52,68,60.243V20.749C68,16.48,64.55,13,60.276,13z M24,25.514c-1.383,0-2.505-1.114-2.505-2.484  c0-1.372,1.122-2.487,2.505-2.487c1.377,0,2.502,1.116,2.502,2.487C26.502,24.4,25.378,25.514,24,25.514z M53.018,53.02H28.006  V28.033h25.011V53.02z"/>
</svg>